<?xml version="1.0" standalone="no"?>
<!DOCTYPE svg PUBLIC "-//W3C//DTD SVG 20010904//EN"
 "http://www.w3.org/TR/2001/REC-SVG-20010904/DTD/svg10.dtd">
<svg version="1.0" xmlns="http://www.w3.org/2000/svg"
 width="700.000000pt" height="700.000000pt" viewBox="0 0 700.000000 700.000000"
 preserveAspectRatio="xMidYMid meet">
<metadata>
Created by potrace 1.11, written by Peter Selinger 2001-2013
</metadata>
<g transform="translate(0.000000,700.000000) scale(0.100000,-0.100000)"
fill="#000000" stroke="none">
<path d="M580 3495 l0 -2915 2920 0 2920 0 0 2915 0 2915 -2920 0 -2920 0 0
-2915z m5530 25 l0 -2630 -2630 0 -2630 0 0 2630 0 2630 2630 0 2630 0 0
-2630z"/>
<path d="M3885 5209 c-349 -473 -452 -606 -461 -597 -6 7 -204 274 -439 593
-235 319 -434 587 -441 595 -12 12 -14 -125 -14 -923 l0 -937 175 0 175 0 0
386 0 386 263 -360 c144 -199 265 -360 269 -359 3 1 123 161 265 356 l258 354
3 -382 2 -381 200 0 200 0 0 940 c0 517 -1 940 -2 940 -2 -1 -205 -275 -453
-611z"/>
<path d="M4478 5794 c-5 -4 -8 -423 -8 -931 l0 -923 180 0 180 0 0 284 0 283
203 6 c221 6 273 16 386 70 93 45 234 186 279 280 47 97 65 177 65 287 0 250
-129 459 -354 575 -125 64 -146 67 -554 72 -203 3 -373 2 -377 -3z m774 -427
c90 -44 138 -123 138 -224 0 -106 -62 -198 -165 -245 -44 -20 -69 -23 -222
-26 l-173 -4 0 267 0 267 183 -4 c175 -4 186 -5 239 -31z"/>
<path d="M1957 5783 c-4 -3 -7 -263 -7 -577 0 -456 -3 -582 -14 -623 -49 -185
-249 -295 -451 -248 -38 9 -81 23 -94 32 -22 14 -25 14 -35 -3 -6 -11 -48 -84
-93 -164 l-81 -145 26 -22 c15 -13 56 -38 92 -57 272 -143 585 -82 822 160
101 103 156 195 200 334 l23 75 -2 550 c-1 303 -4 583 -8 623 l-7 72 -182 0
c-101 0 -186 -3 -189 -7z"/>
</g>
</svg>
