<?xml version="1.0" encoding="utf-8"?>
<svg version="1.1" id="Layer_1" xmlns="http://www.w3.org/2000/svg" xmlns:xlink="http://www.w3.org/1999/xlink" x="0px" y="0px"
	 viewBox="0 0 480 480" style="enable-background:new 0 0 480 480;" xml:space="preserve">
<style type="text/css">
	.st0{fill:#EE445F;}
</style>
<path class="st0" d="M40,40.2v400h400v-400H40z M418.8,419H58.2V58.4h360.6V419z M160,83.3l1.2,50.4v25.6c0,14-5.6,27.4-15.5,37.2
	c-9.7,9.7-22.1,16.3-35.8,16.3c-0.2,0-0.3,0-0.5,0h-0.4c-10.5,0-19.9-4.6-28.1-10.4l12.7-22.9c3.7,3,7.8,3.5,12.4,4.1
	c1.1,0.2,2.1-0.1,3.1-0.1h0.2h0.3c0.9,0,1.9-0.2,3-0.3c5.5-0.7,9.9-2.7,14-6.8c5-4.9,7.1-10.4,7.1-17.3v-2.6V134l0.3-50.9L160,83.3z
	 M235.5,164.7l62.1-84v129.3h-27.3v-53.1l-36.4,49.8l-36.4-49.8v53.1h-24.2V80.6L235.5,164.7z M306.7,170.9v-44V82.6h25.9h18.8
	c12.1,0,22.4,4.5,31.1,13.1s12.9,19.1,12.9,31.2c0,12.1-4.3,22.3-12.9,30.9s-19,12.7-31.1,12.7h-20.4v39.4h-24.2V170.9z
	 M350.5,145.9c5.2,0,10.1-1.9,13.7-5.5c3.7-3.7,5.7-8.1,5.7-13.3c0-5.1-1.8-8.7-5.4-12.4c-3.7-3.7-8-4.7-13.2-4.7h-20.4v17v18.9
	L350.5,145.9z"/>
</svg>
